<svg xmlns="http://www.w3.org/2000/svg"
shape-rendering="geometricPrecision"
width="4000" height="4000" viewBox="0 0 1024 1024">
  <metadata>null</metadata>

<path d="
M 46.098 461.686
C 51.027 460.797 56.792 461.417 61.82 461.433
C 63.014 461.436 66.124 461.057 66.982 461.751
C 74.138 483.581 81.585 505.326 88.597 527.207
C 90.461 533.021 91.892 539.033 94.04 544.75
C 94.587 546.207 95.216 549.808 96.532 550.644
C 96.883 547.502 98.522 544.245 99.498 541.243
C 101.34 535.577 103.07 529.883 104.998 524.243
C 109.176 512.015 113.228 499.712 117.55 487.536
C 120.558 479.064 123.687 470.488 125.911 461.773
C 128.18 461.211 131.037 461.707 133.38 461.7
C 137.75 461.687 142.68 461.07 146.98 461.847
C 137.996 486.489 129.251 511.237 120.391 535.927
C 117.407 544.241 114.334 552.518 111.329 560.824
C 110.36 563.502 109.332 566.161 108.378 568.843
C 107.939 570.077 107.61 571.689 106.925 572.797
C 105.552 573.097 103.905 572.8 102.5 572.794
C 99.166 572.779 95.831 572.77 92.498 572.793
C 90.114 572.809 86.981 573.417 84.69 572.831
C 83.356 569.75 82.617 566.319 81.53 563.137
C 79.595 557.475 77.489 551.873 75.542 546.214
C 69.061 527.387 62.304 508.664 55.618 489.909
C 52.301 480.607 49.831 470.81 46.098 461.686 Z"
opacity="1" fill="rgb(32,131,158)" fill-rule="evenodd" />
<path d="
M 154.968 508.618
C 155.203 506.784 154.876 504.873 155.361 503.067
C 156.347 499.392 159.857 496.798 163.576 496.504
C 165.133 496.38 166.626 496.867 168.141 496.801
C 167.625 489.748 166.942 479.693 175.653 477.72
C 177.376 477.33 180.528 477.092 182.033 478.277
C 181.399 471.211 181.956 463.73 181.889 456.594
C 181.854 452.754 181.253 448.415 183.175 444.914
C 186.86 438.2 199.307 439.347 200.315 447.496
C 200.8 451.408 200.454 455.52 200.481 459.457
C 200.536 467.476 200.443 475.482 200.405 483.501
C 200.301 505.499 200.425 527.5 200.374 549.499
C 200.354 557.999 200.4 566.499 200.375 574.999
C 200.364 578.758 201.036 583.442 198.825 586.729
C 194.756 592.779 185.095 590.597 182.533 584.414
C 181.78 582.596 181.908 580.427 181.891 578.496
C 181.854 574.46 182.236 570.375 181.981 566.35
C 181.91 565.245 182.331 564.006 182.143 562.936
C 179.971 563.193 177.838 563.545 175.659 563.107
C 167.222 561.41 167.157 551.542 168.272 544.673
C 163.12 545.453 157.553 544.439 155.563 538.943
C 154.36 535.619 155.016 531.312 155.033 527.836
C 155.065 521.437 154.69 515.013 154.968 508.618 Z
M 160.36 505.084
C 159.922 512.011 160.273 519.055 160.273 525.995
C 160.273 529.302 159.583 533.704 160.571 536.886
C 161.612 540.244 165.747 539.816 168.253 538.799
C 168.361 530.537 168.258 522.263 168.266 513.999
C 168.268 511.499 168.25 508.998 168.26 506.497
C 168.264 505.284 168.509 503.8 168.182 502.639
C 165.385 501.744 161.377 501.453 160.36 505.084 Z
M 173.856 486.064
C 173.041 492.723 173.676 499.795 173.699 506.497
C 173.742 518.937 173.67 531.379 173.685 543.819
C 173.688 546.278 173.764 548.741 173.738 551.199
C 173.724 552.546 173.489 554.205 173.961 555.496
C 175.074 558.536 179.866 558.259 181.703 556.296
C 182.547 550.963 181.775 544.906 181.77 539.5
C 181.759 528.333 181.765 517.166 181.784 505.999
C 181.792 501.166 181.763 496.333 181.802 491.5
C 181.819 489.336 182.38 486.311 181.622 484.274
C 179.07 482.287 174.948 482.731 173.856 486.064 Z
M 187.406 449.106
C 186.762 460.325 187.338 471.754 187.283 482.996
C 187.169 506.491 187.103 530.001 187.286 553.495
C 187.349 561.568 187.434 569.653 187.354 577.725
C 187.322 580.878 187.152 585.269 191.688 584.879
C 195.871 584.519 195.093 580.323 195.038 577.335
C 194.887 569.226 195.099 561.105 195.058 552.995
C 194.916 525.325 195.022 497.667 195.076 469.995
C 195.085 465.243 195.104 460.492 195.101 455.74
C 195.1 453.604 195.41 451.231 195.117 449.119
C 194.631 445.62 189.503 445.207 187.701 447.809
C 187.572 448.242 187.475 448.66 187.406 449.106 Z"
opacity="1" fill="rgb(51,134,158)" fill-rule="evenodd" />
<path d="
M 208.426 426.093
C 209.873 416.955 224.645 415.56 226.703 425.047
C 227.853 430.351 227.124 436.594 227.115 441.997
C 227.097 452.33 227.102 462.662 227.079 472.994
C 227.008 505.332 227.056 537.666 227.059 570.008
C 227.06 582.283 227.296 594.618 227.003 606.887
C 226.886 611.776 224.194 615.77 219.032 616.146
C 214.347 616.487 209.691 613.965 208.784 609.088
C 208.124 605.539 208.468 601.527 208.536 597.931
C 208.691 589.693 209.213 581.066 208.487 572.857
C 207.634 563.22 208.409 553.172 208.405 543.497
C 208.397 523.997 208.405 504.497 208.396 484.997
C 208.39 471.997 208.417 458.996 208.374 445.997
C 208.36 441.664 208.344 437.331 208.325 432.998
C 208.316 430.735 208.071 428.336 208.426 426.093 Z
M 213.847 427.044
C 213.446 428.384 213.734 430.111 213.728 431.497
C 213.714 434.664 213.717 437.831 213.729 440.997
C 213.765 450.83 213.757 460.664 213.75 470.498
C 213.726 503.163 213.738 535.829 213.786 568.494
C 213.801 579.328 213.766 590.161 213.776 600.995
C 213.779 604.578 212.527 611.132 218.074 610.84
C 223.1 610.576 221.699 603.918 221.68 600.503
C 221.621 589.511 221.599 578.52 221.422 567.533
C 220.899 535 221.247 502.372 221.444 469.835
C 221.503 460.061 221.577 450.281 221.582 440.502
C 221.584 436.093 222.277 431.021 221.533 426.682
C 220.829 422.573 214.844 423.722 213.847 427.044 Z"
opacity="1" fill="rgb(49,133,158)" fill-rule="evenodd" />
<path d="
M 234.938 461.074
C 237.876 453.473 248.153 452.71 252.305 459.836
C 253.509 461.903 253.217 464.698 253.227 467.001
C 253.246 471.356 253.458 475.779 253.23 480.125
C 253.961 480.312 254.969 479.967 255.723 479.901
C 257.283 479.764 258.861 479.867 260.351 480.378
C 267.83 482.945 267.374 491.608 266.645 498.158
C 267.806 498.667 269.731 497.995 271.027 498.082
C 274.333 498.303 277.351 500.027 279.059 502.907
C 281.612 507.212 280.336 514.175 280.335 518.999
C 280.333 523.472 280.343 527.947 280.357 532.42
C 280.374 537.451 280.775 543.539 275.189 545.784
C 274.007 546.259 272.721 546.459 271.458 546.579
C 269.87 546.729 268.235 546.755 266.658 546.545
C 267.035 552.079 268.093 560.726 261.673 563.249
C 260.7 563.631 259.663 563.789 258.628 563.889
C 256.765 564.07 255.204 563.725 253.38 563.469
C 252.652 564.728 253.093 567.541 253.109 568.996
C 253.173 574.876 255.001 583.997 248.544 587.161
C 243.503 589.632 236.974 587.741 235.109 582.145
C 234.461 580.199 234.75 577.815 234.726 575.787
C 234.675 571.497 234.741 567.208 234.746 562.918
C 234.775 539.946 234.774 516.972 234.729 493.999
C 234.715 486.834 234.68 479.668 234.659 472.502
C 234.648 468.86 234.088 464.627 234.938 461.074 Z
M 240.263 462.99
C 239.437 465.342 240.22 469.004 240.218 471.499
C 240.214 477.999 240.195 484.499 240.214 490.999
C 240.277 512.499 240.167 533.998 240.183 555.498
C 240.188 562.569 240.251 569.642 240.16 576.713
C 240.127 579.24 240.307 582.8 243.754 582.806
C 247.821 582.813 247.978 579.346 247.882 576.228
C 247.659 569.056 247.941 561.869 247.88 554.694
C 247.707 533.978 247.857 513.215 247.926 492.493
C 247.948 485.953 248.025 479.421 248.048 472.88
C 248.058 469.809 248.553 466.275 248.014 463.254
C 247.31 459.307 241.483 459.514 240.263 462.99 Z
M 253.389 486.391
C 252.986 501.076 253.353 515.803 253.31 530.494
C 253.292 536.495 253.313 542.495 253.344 548.496
C 253.36 551.44 253.056 554.564 253.383 557.484
C 254.203 558.029 254.95 558.463 255.926 558.673
C 257.651 559.043 260.482 558.502 261.193 556.624
C 261.665 555.377 261.411 553.802 261.384 552.499
C 261.329 549.832 261.345 547.165 261.321 544.498
C 261.183 529.003 261.3 513.492 261.376 497.997
C 261.387 495.692 261.337 493.386 261.367 491.082
C 261.38 490.046 261.661 488.676 261.256 487.688
C 260.451 485.724 257.852 484.818 255.951 485.314
C 255.054 485.548 254.193 485.94 253.389 486.391 Z
M 266.89 504.479
C 266.802 512.651 266.85 520.825 266.865 528.999
C 266.871 532.603 266.141 537.088 266.961 540.584
C 269.57 541.278 272.845 542.057 274.537 539.167
C 275.672 537.228 275.036 533.006 274.976 530.797
C 274.825 525.256 275.091 519.686 275.111 514.138
C 275.12 511.777 275.674 508.569 274.753 506.347
C 273.741 503.906 271.86 503.324 269.468 503.594
C 268.55 503.698 267.474 503.722 266.89 504.479 Z"
opacity="1" fill="rgb(50,133,157)" fill-rule="evenodd" />
<path d="
M 295.94 467.085
C 296.323 465.267 297.024 463.534 298.195 462.089
C 299.55 460.417 301.304 458.831 303.31 457.991
C 312.937 453.958 321.82 463.921 319.547 473.241
C 317.747 480.621 308.38 483.296 301.976 480.052
C 297.327 477.696 294.872 472.149 295.94 467.085 Z"
opacity="1" fill="rgb(35,134,158)" fill-rule="evenodd" />
<path d="
M 298.932 490.894
C 299.718 490.076 302.607 490.433 303.735 490.42
C 308.128 490.37 312.544 490.36 316.931 490.518
C 317.517 497.601 317.119 504.89 317.125 512.002
C 317.134 524.502 317.179 537.002 317.179 549.502
C 317.179 555.002 317.16 560.501 317.138 566
C 317.13 568.08 316.563 571.13 317.175 573.105
C 311.373 573.792 305.221 572.457 299.362 572.941
C 298.523 571.876 298.952 568.506 298.927 567.099
C 298.834 561.988 298.949 556.87 298.933 551.758
C 298.87 531.479 298.882 511.181 298.932 490.894 Z"
opacity="1" fill="rgb(34,131,156)" fill-rule="evenodd" />
<path d="
M 332.969 529.615
C 333.396 525.225 333.768 520.905 335.196 516.687
C 340.236 501.797 353.021 491.313 368.457 488.68
C 384.483 485.946 401.332 491.093 411.161 504.484
C 413.854 508.153 416.739 513.261 416.992 517.908
C 410.867 518.128 404.699 517.516 398.581 517.858
C 397.029 516.861 395.734 513.719 394.436 512.253
C 391.439 508.869 387.199 506.657 382.835 505.642
C 378.794 504.701 374.02 504.71 370.035 505.939
C 366.216 507.117 362.744 509.051 359.754 511.71
C 348.336 521.861 348.681 540.993 360.017 551.156
C 365.08 555.695 372.359 557.792 379.051 557.403
C 382.499 557.203 385.792 556.122 388.827 554.503
C 393.416 552.054 395.901 548.188 398.573 543.943
C 400.583 543.552 402.945 543.876 405 543.87
C 409.196 543.857 413.413 543.746 417.606 543.853
C 417.854 544.243 417.112 545.637 416.968 546.074
C 416.259 548.235 415.453 550.243 414.358 552.239
C 409.724 560.687 402.738 567.007 393.967 570.948
C 377.963 578.14 358.068 573.993 345.691 561.805
C 337.203 553.448 332.676 541.436 332.969 529.615 Z"
opacity="1" fill="rgb(35,131,156)" fill-rule="evenodd" />
<path d="
M 428.421 524.59
C 430.55 513.723 435.457 503.642 444.325 496.64
C 460.583 483.803 485.356 486.302 499.58 500.881
C 505.984 507.444 509.159 517.169 509.724 526.139
C 509.977 530.16 509.234 534.343 509.682 538.321
C 501.423 538.976 492.79 538.28 484.5 538.23
C 472.102 538.154 459.667 538.455 447.279 538.264
C 447.685 540.602 447.829 542.781 448.908 544.957
C 454.723 556.692 470.432 561.17 481.653 554.519
C 485.546 552.211 487.356 548.57 489.8 544.994
C 494.31 544.739 498.975 545.255 503.504 545.267
C 504.655 545.27 507.368 544.755 508.296 545.457
C 505.447 553.193 502.496 559.518 496.166 565.116
C 479.918 579.485 452.002 577.893 437.783 561.341
C 429.325 551.495 426.669 537.211 428.421 524.59 Z
M 448.37 520.535
C 448.228 521.124 448.152 521.621 448.138 522.227
C 452.219 523.205 457.307 522.392 461.504 522.399
C 471.42 522.414 481.38 522.176 491.279 522.723
C 489.652 517.627 487.397 513.269 483.039 509.932
C 474.206 503.168 460.578 505.073 453.042 512.833
C 450.851 515.089 449.591 517.697 448.37 520.535 Z"
opacity="1" fill="rgb(37,132,157)" fill-rule="evenodd" />
<path d="
M 521.979 465.105
C 522.078 464.5 522.048 464.857 521.996 464.033
C 523.678 463.523 525.752 463.803 527.499 463.793
C 531.332 463.772 535.166 463.793 538.999 463.793
C 546 463.793 553.001 463.85 560.002 463.879
C 567.454 463.909 575.121 464.02 581.907 467.569
C 595.45 474.65 600.39 492.292 592.995 505.674
C 591.415 508.532 589.363 510.925 586.71 512.844
C 585.419 513.778 583.942 514.479 582.737 515.521
C 582.899 516.284 583.827 516.274 584.519 516.575
C 586.508 517.441 588.396 518.314 590.066 519.73
C 594.833 523.773 598.274 529.028 599.479 535.188
C 600.285 539.309 600.312 543.296 599.769 547.438
C 599.377 550.431 598.598 553.432 597.285 556.158
C 596.111 558.596 594.608 560.908 592.831 562.952
C 583.47 573.715 568.419 573.056 555.432 573.037
C 549.234 573.028 543.034 572.98 536.836 572.999
C 531.956 573.015 527.076 572.842 522.198 573.094
C 522.189 548.564 522.092 524.031 522.068 499.5
C 522.056 488.082 521.213 476.509 521.979 465.105 Z
M 540.466 480.459
C 540.421 486.804 540.459 493.156 540.441 499.504
C 540.433 502.326 539.807 506.082 540.629 508.788
C 546.505 508.758 552.39 508.886 558.269 508.893
C 562.753 508.898 567.264 508.963 571.262 506.649
C 579.755 501.735 579.883 487.457 571.471 482.392
C 565.818 478.99 558.305 479.942 552.001 479.931
C 548.301 479.925 544.357 479.525 540.694 480.081
C 540.618 480.207 540.542 480.333 540.466 480.459 Z
M 540.488 526.124
C 539.582 535.983 540.509 546.256 540.639 556.125
C 541.444 556.598 542.696 556.311 543.609 556.298
C 545.738 556.268 547.871 556.309 550.001 556.313
C 556.543 556.324 564.223 557.572 570.56 555.726
C 572.963 555.027 575.69 553.916 577.404 552.024
C 585.004 543.638 582.043 529.032 570.927 525.663
C 565.936 524.15 560.122 524.865 554.977 524.885
C 551.651 524.898 548.327 524.85 545.001 524.817
C 543.625 524.803 541.78 524.453 540.528 525.076
C 540.57 525.883 540.609 525.536 540.488 526.124 Z"
opacity="1" fill="rgb(36,131,156)" fill-rule="evenodd" />
<path d="
M 609.503 491.602
C 609.512 491.39 609.522 491.177 609.531 490.964
C 611.167 490.117 613.197 490.428 615.004 490.42
C 618.833 490.402 623.867 489.62 627.547 490.768
C 627.276 493.748 627.875 497.026 628.003 500.036
C 629.044 499.711 630.129 497.8 631.035 497.054
C 633.458 495.061 636.132 493.317 638.984 492.001
C 645.118 489.173 651.09 489.849 657.507 488.73
C 657.458 493.634 657.388 498.58 657.296 503.504
C 657.278 504.452 657.734 507.825 656.98 508.425
C 653.188 508.345 648.976 508.465 645.273 509.354
C 640.767 510.437 636.3 511.465 632.981 514.983
C 627.913 520.355 628.122 527.708 628.105 534.585
C 628.085 543.059 628.143 551.533 628.191 560.007
C 628.215 564.216 628.686 568.699 628.167 572.874
C 627.168 573.481 624.278 573.022 623.048 573.023
C 618.659 573.025 614.269 572.995 609.884 572.947
C 609.133 570.807 609.692 567.633 609.69 565.371
C 609.688 559.748 609.684 554.126 609.696 548.502
C 609.721 537.333 609.56 526.163 609.571 514.994
C 609.578 507.208 609.907 499.38 609.503 491.602 Z"
opacity="1" fill="rgb(36,130,157)" fill-rule="evenodd" />
<path d="
M 671.371 466.569
C 672.44 462.084 676.384 457.966 681.029 457.162
C 687.568 456.03 694.389 460.159 695.488 466.876
C 695.796 468.758 695.719 470.773 695.243 472.621
C 693.283 480.22 683.894 483.191 677.176 479.911
C 672.44 477.599 670.182 471.555 671.371 466.569 Z"
opacity="1" fill="rgb(37,135,161)" fill-rule="evenodd" />
<path d="
M 673.472 540.12
C 673.987 535.854 673.594 531.296 673.598 526.999
C 673.606 519.334 673.707 511.668 673.711 504.003
C 673.713 499.786 672.972 494.653 673.921 490.551
C 679.95 490.036 686.165 490.327 692.201 490.599
C 691.727 509.037 692.108 527.556 692.189 546.002
C 692.215 552.002 692.241 558.002 692.226 564.002
C 692.219 566.946 691.79 570.341 692.338 573.23
C 686.154 573.356 679.957 573.03 673.774 573.153
C 673.364 572.813 673.449 571.431 673.432 570.88
C 673.368 568.899 673.404 566.913 673.406 564.932
C 673.413 556.675 673.15 548.37 673.472 540.12 Z"
opacity="1" fill="rgb(33,132,159)" fill-rule="evenodd" />
<path d="
M 706.947 524.095
C 708.391 515.257 711.904 505.864 718.426 499.425
C 732.516 485.513 757.489 483.914 771.19 499.345
C 771.299 499.31 771.099 497.593 771.09 497.433
C 770.96 495.13 771.042 492.799 771.053 490.492
C 771.098 480.78 770.716 470.943 771.262 461.247
C 776.845 460.047 783.449 460.746 789.139 460.844
C 789.861 462.644 789.196 466.037 789.191 467.999
C 789.177 473.834 789.214 479.668 789.221 485.502
C 789.245 505.665 789.137 525.833 789.068 545.997
C 789.045 552.497 789.059 558.998 789.074 565.499
C 789.078 567.443 789.889 571.507 788.866 573.197
C 783.214 573.502 777.288 573.368 771.631 573.143
C 771.503 570.485 771.858 567.409 771.426 564.83
C 770.938 564.824 770.448 565.761 770.13 566.082
C 768.893 567.331 767.256 568.392 765.75 569.286
C 760.951 572.133 755.695 574.181 750.111 574.647
C 745.289 575.049 740.461 574.92 735.753 573.747
C 732.455 572.925 729.157 571.657 726.213 569.951
C 710.394 560.781 704.843 541.386 706.947 524.095 Z
M 725.447 525.6
C 723.908 534.997 726.266 546.677 734.21 552.766
C 748.26 563.534 768.017 553.992 770.965 537.337
C 772.516 528.576 770.715 517.962 763.67 511.916
C 750.18 500.338 728.345 507.897 725.447 525.6 Z"
opacity="1" fill="rgb(33,131,158)" fill-rule="evenodd" />
<path d="
M 801.937 524.594
C 802.533 521.97 802.827 519.304 803.626 516.724
C 805.655 510.177 809.358 503.996 814.27 499.204
C 828.757 485.07 853.629 484.381 867.033 500.112
C 867.603 498.114 867.166 495.1 867.162 493.001
C 867.161 492.032 866.979 490.888 867.5 490.055
C 873.167 489.519 879.151 490.015 884.844 490.189
C 884.463 492.501 884.813 495.153 884.82 497.5
C 884.834 502.334 884.865 507.167 884.87 512.001
C 884.885 527.667 884.955 543.337 884.875 559.003
C 884.816 570.512 885.378 582.933 879.323 593.246
C 866.507 615.077 831.401 617.987 814.162 599.926
C 809.238 594.768 806.739 588.693 805.357 581.802
C 809.386 581.612 813.464 581.726 817.501 581.725
C 819.735 581.724 822.302 581.376 824.48 581.928
C 827.806 593.03 843.474 596.271 853.243 592.518
C 858.442 590.52 862.357 586.613 864.649 581.596
C 866.454 577.646 866.835 572.665 866.781 568.362
C 866.772 567.633 867.049 564.291 866.362 564.128
C 864.239 567.655 859.839 570.131 856.193 571.806
C 843.995 577.408 830.168 575.636 819.13 568.24
C 805.541 559.135 799.604 540.378 801.937 524.594 Z
M 820.482 528.112
C 819.526 538.077 823.123 549.116 832.153 554.4
C 847.025 563.104 865.357 551.84 867.061 535.457
C 868 526.429 865.407 516.865 858.016 511.108
C 848.776 503.911 834.413 504.88 826.458 513.69
C 822.897 517.634 820.985 522.878 820.482 528.112 Z"
opacity="1" fill="rgb(32,131,159)" fill-rule="evenodd" />
<path d="
M 896.957 529.117
C 897.212 527.094 897.075 525.057 897.464 523.043
C 899.064 514.764 902.701 506.436 908.581 500.272
C 922.439 485.744 948.467 484.067 963.915 496.93
C 973.206 504.666 978.429 516.145 978.699 528.161
C 978.753 530.563 978.614 532.957 978.622 535.358
C 978.624 535.998 978.854 537.735 978.403 538.234
C 963.774 538.404 949.132 538.219 934.5 538.283
C 928.437 538.31 922.283 537.96 916.236 538.351
C 917.245 542.683 918.332 546.824 921.385 550.238
C 929.234 559.012 943.451 560.396 952.643 552.791
C 955.109 550.751 956.543 548.127 958.047 545.385
C 959.355 544.742 962.021 545.292 963.503 545.299
C 967.857 545.319 972.455 545.02 976.778 545.405
C 976.613 548.812 974.894 552.482 973.395 555.489
C 964.715 572.905 943.587 578.274 925.819 573.289
C 917.77 571.03 910.186 566.329 905.16 559.58
C 898.851 551.107 896.508 539.515 896.957 529.117 Z
M 916.959 520.572
C 916.842 521.126 916.754 521.677 916.666 522.236
C 920.085 522.841 924.023 522.274 927.502 522.28
C 935.002 522.293 942.502 522.28 950.002 522.272
C 952.536 522.27 955.069 522.3 957.601 522.39
C 957.886 522.4 959.773 522.694 959.842 522.487
C 957.176 510.116 942.788 503.061 931.107 506.648
C 924.726 508.608 919.14 514.31 916.959 520.572 Z"
opacity="1" fill="rgb(33,131,158)" fill-rule="evenodd" />

</svg>